<svg viewBox="0 0 259 89" xmlns="http://www.w3.org/2000/svg">
  <path fill-rule="evenodd" clip-rule="evenodd" d="M243.026 0H15.8207C2.24552 0 0 4.81647 0 16.2818V72.8491C0 84.2882 4.64414 89 15.7952 89H243.026C254.203 89 259 84.2621 259 72.8229V16.2818C259 4.81647 254.203 0 243.026 0Z" fill="white"/>
  <path fill="currentColor" fill-rule="evenodd" clip-rule="evenodd" d="M67.5184 54.0502C66.217 56.9298 65.5791 58.2295 63.9204 60.7778C61.5728 64.3455 58.2811 68.7796 54.1729 68.8051C50.5239 68.8306 49.6053 66.4351 44.6549 66.4606C39.7301 66.4861 38.6839 68.8306 35.0604 68.8051C30.9777 68.7796 27.8391 64.7532 25.4915 61.1856C18.9335 51.2216 18.2446 39.5247 22.3018 33.3068C25.1853 28.8981 29.7018 26.2988 33.9632 26.2988C38.3011 26.2988 41.0315 28.6688 44.6039 28.6688C48.0742 28.6688 50.1922 26.2988 55.2191 26.2988C59.0211 26.2988 63.0273 28.363 65.8853 31.9307C56.5204 37.1038 58.0515 50.4826 67.5184 54.0502Z"/>
  <path fill="currentColor" fill-rule="evenodd" clip-rule="evenodd" d="M51.4433 22.3745C53.255 20.0301 54.6584 16.7427 54.1481 13.3789C51.1626 13.5828 47.6922 15.4685 45.6508 17.9404C43.8136 20.183 42.2826 23.4958 42.8695 26.7322C46.1102 26.8086 49.4784 24.8719 51.4433 22.3745Z"/>
  <path fill="currentColor" fill-rule="evenodd" clip-rule="evenodd" d="M235.881 58.7396H222.714C222.765 60.5234 223.403 62.0779 224.628 63.1227C225.725 64.0401 227.18 64.4733 228.941 64.4733C230.905 64.4733 232.666 64.1421 234.274 63.505L234.963 66.5375C233.1 67.353 230.88 67.7352 228.328 67.7352C225.266 67.7352 222.867 66.8433 221.107 65.034C219.372 63.2247 218.479 60.8292 218.479 57.7967C218.479 54.8151 219.295 52.3433 220.928 50.3555C222.638 48.2404 224.96 47.1956 227.843 47.1956C230.701 47.1956 232.845 48.2404 234.299 50.3555C235.473 52.0375 236.06 54.2035 236.06 56.6499C236.034 57.4399 235.983 58.2299 235.881 58.7396ZM217.152 51.5023C216.896 51.4259 216.207 51.4004 215.723 51.4004C214.166 51.4004 212.967 51.9865 212.125 53.1332C211.385 54.1526 211.002 55.4522 211.002 57.0322V67.1491H206.664V53.8468C206.664 51.5788 206.562 49.5656 206.485 47.5269H210.313L210.466 51.6042H210.594C211.053 50.3301 211.793 49.1833 212.788 48.3933C213.758 47.6798 214.855 47.2975 216.003 47.2975C216.412 47.2975 216.871 47.2721 217.126 47.323V51.5023H217.152ZM201.28 64.8301C199.468 66.8178 197.044 67.8371 194.033 67.8371C191.124 67.8371 188.802 66.8688 187.092 64.9575C185.383 63.0463 184.515 60.5999 184.515 57.6948C184.515 54.6368 185.408 52.1394 187.169 50.1772C188.955 48.2149 191.328 47.2466 194.339 47.2466C197.248 47.2466 199.57 48.1895 201.331 50.1262C203.015 51.9865 203.857 54.4074 203.857 57.338C203.883 60.396 203.015 62.8679 201.28 64.8301ZM183.214 51.0946H178.621V60.5234C178.621 62.9698 179.386 64.1675 181.096 64.1675C181.887 64.1675 182.474 64.1166 182.984 63.9637L183.086 67.2765C182.219 67.6078 181.07 67.7607 179.667 67.7607C177.932 67.7607 176.528 67.251 175.559 66.1807C174.563 65.1359 174.053 63.3521 174.053 60.8547V51.0946H171.246V47.5269H174.053V44.0357L178.646 42.736V47.5269H183.239V51.0946H183.214ZM167.776 65.3907C165.99 66.9962 163.489 67.7862 160.299 67.7862C157.339 67.7862 154.992 67.2255 153.205 66.0788L154.226 62.4347C156.14 63.5559 158.258 64.1421 160.554 64.1421C162.213 64.1421 163.489 63.7598 164.433 63.0208C165.352 62.2818 165.811 61.2879 165.811 60.0137C165.811 58.918 165.428 57.9751 164.688 57.2106C163.923 56.4461 162.672 55.758 160.912 55.0955C156.114 53.3116 153.716 50.7123 153.716 47.2721C153.716 45.0295 154.558 43.1692 156.242 41.7422C157.926 40.3151 160.172 39.6016 162.979 39.6016C165.479 39.6016 167.546 40.0348 169.205 40.9012L168.107 44.4689C166.551 43.6279 164.816 43.2202 162.851 43.2202C161.294 43.2202 160.095 43.6025 159.227 44.3415C158.487 45.0295 158.13 45.845 158.13 46.8134C158.13 47.8837 158.539 48.7756 159.381 49.4891C160.121 50.1262 161.447 50.8397 163.361 51.6042C165.734 52.5471 167.444 53.6684 168.567 54.9426C169.664 56.2167 170.225 57.7967 170.225 59.6825C170.2 62.0269 169.383 63.9382 167.776 65.3907ZM142.412 65.2378C140.779 66.9707 138.737 67.8371 136.313 67.8371C133.71 67.8371 131.95 66.8943 130.674 65.034V75.5586H126.336V54.1271C126.336 52.012 126.259 50.0752 126.157 47.5269H130.01L130.265 50.8397H130.342C131.822 48.5462 134.042 47.2721 137.002 47.2721C139.324 47.2721 141.289 48.164 142.845 50.0243C144.402 51.8591 145.193 54.28 145.193 57.287C145.142 60.6508 144.249 63.2756 142.412 65.2378ZM120.696 65.2378C119.063 66.9707 117.022 67.8371 114.598 67.8371C111.97 67.8371 110.234 66.8943 108.959 65.034V75.5586H104.621V54.1271C104.621 52.012 104.519 50.0752 104.416 47.5269H108.27L108.525 50.8397H108.601C110.081 48.5462 112.301 47.2721 115.287 47.2721C117.609 47.2721 119.548 48.164 121.13 50.0243C122.687 51.8591 123.478 54.28 123.478 57.287C123.452 60.6508 122.534 63.2756 120.696 65.2378ZM97.2206 67.1491L94.6689 59.2492H85.7378L83.2882 67.1491H78.7461L87.5495 39.8819H93.0102L101.89 67.1491H97.2206ZM227.486 50.2281C226.057 50.2281 224.883 50.9672 223.99 52.1394C223.25 53.0823 222.816 54.1271 222.689 55.6561H231.824C231.85 54.1271 231.569 53.1078 230.982 52.1649C230.242 50.9671 229.068 50.2281 227.486 50.2281ZM90.1778 43.7044H90.1013C89.8206 44.9786 89.3868 46.6859 88.7999 48.954L86.5289 56.1912H93.8778L91.5813 48.954C91.3261 48.2149 90.8413 46.2527 90.1778 43.7044ZM135.547 50.7378C134.45 50.7378 133.481 51.0946 132.613 51.8081C131.72 52.5471 131.133 53.4645 130.878 54.6368C130.75 55.1719 130.674 55.6306 130.674 55.9874V59.2492C130.674 60.6763 131.133 61.8995 132.001 62.8934C132.868 63.8617 134.042 64.3714 135.445 64.3714C137.104 64.3714 138.405 63.7343 139.324 62.4602C140.243 61.186 140.702 59.5041 140.702 57.4144C140.702 55.5032 140.268 53.9232 139.401 52.6745C138.431 51.4004 137.155 50.7378 135.547 50.7378ZM194.186 50.4575C192.425 50.4575 191.099 51.2475 190.18 52.802C189.389 54.1016 189.006 55.6561 189.006 57.5419C189.006 59.3512 189.389 60.9057 190.18 62.2053C191.124 63.7598 192.451 64.5498 194.161 64.5498C195.819 64.5498 197.146 63.7598 198.09 62.1544C198.907 60.8547 199.315 59.2747 199.315 57.4654C199.315 55.6561 198.932 54.1016 198.141 52.802C197.223 51.222 195.896 50.4575 194.186 50.4575ZM113.832 50.7378C112.761 50.7378 111.765 51.0946 110.898 51.8081C110.005 52.5471 109.443 53.4645 109.163 54.6368C109.035 55.1719 108.959 55.6306 108.959 55.9874V59.2492C108.959 60.6763 109.392 61.8995 110.285 62.8934C111.153 63.8617 112.301 64.3714 113.73 64.3714C115.389 64.3714 116.69 63.7343 117.609 62.4602C118.527 61.186 118.987 59.5041 118.987 57.4144C118.987 55.5032 118.553 53.9232 117.685 52.6745C116.716 51.4004 115.44 50.7378 113.832 50.7378Z"/>
  <path fill="currentColor" d="M84.2881 28.4814H86.2119C88.0479 28.4814 89.1025 29.292 89.1025 30.5908C89.1025 31.9092 87.9795 32.8271 86.2705 32.8271C84.542 32.8271 83.3799 31.9971 83.2725 30.708H80.8506C80.9775 33.2764 83.126 34.9658 86.2607 34.9658C89.3467 34.9658 91.6904 33.1982 91.6904 30.7471C91.6904 28.8135 90.3916 27.5439 88.5459 27.3584V27.1924C90.1182 26.8506 91.1924 25.542 91.1924 23.9795C91.1924 21.7139 89.1807 20.1709 86.3193 20.1709C83.2822 20.1709 81.3291 21.792 81.2021 24.3701H83.5557C83.6533 23.0615 84.6885 22.2412 86.2412 22.2412C87.8232 22.2412 88.751 23.0518 88.751 24.2822C88.751 25.542 87.7451 26.4111 86.1729 26.4111H84.2881V28.4814ZM97.999 32.8857C96.9248 32.8857 96.1533 32.3486 96.1533 31.4502C96.1533 30.5811 96.7881 30.0928 98.1455 30.0049L100.558 29.8486V30.6982C100.558 31.9385 99.4639 32.8857 97.999 32.8857ZM97.2861 34.79C98.6826 34.79 99.8545 34.1846 100.45 33.1494H100.616V34.6143H102.95V27.3193C102.95 25.0537 101.407 23.7158 98.6631 23.7158C96.124 23.7158 94.3564 24.917 94.1611 26.8018H96.4463C96.6709 26.0791 97.4326 25.6885 98.5459 25.6885C99.8545 25.6885 100.558 26.2744 100.558 27.3193V28.2178L97.8037 28.3838C95.2061 28.54 93.751 29.6533 93.751 31.5869C93.751 33.54 95.2256 34.79 97.2861 34.79ZM113.253 25.8643V23.9307H106.056V34.6143H108.478V25.8643H113.253ZM121.534 23.7549C120.069 23.7549 118.829 24.4873 118.214 25.6982H118.048V23.9307H115.714V38.1689H118.136V32.9932H118.302C118.849 34.126 120.03 34.79 121.563 34.79C124.259 34.79 125.938 32.6807 125.938 29.2725C125.938 25.8447 124.239 23.7549 121.534 23.7549ZM120.772 32.7295C119.122 32.7295 118.097 31.4111 118.087 29.2725C118.097 27.1436 119.132 25.8154 120.782 25.8154C122.442 25.8154 123.448 27.1143 123.448 29.2725C123.448 31.4307 122.452 32.7295 120.772 32.7295ZM129.308 38.4912C131.7 38.4912 132.843 37.6123 133.751 34.9561L137.608 23.9307H135.05L132.56 32.2705H132.394L129.894 23.9307H127.237L131.056 34.6631L130.929 35.1318C130.616 36.1182 130.04 36.5088 129.015 36.5088C128.849 36.5088 128.487 36.499 128.351 36.4697V38.4521C128.507 38.4814 129.161 38.4912 129.308 38.4912ZM143.458 34.8193C146.202 34.8193 147.95 33.4521 147.95 31.46C147.95 30.2588 147.237 29.3994 145.743 29.1064V28.9404C146.896 28.6768 147.608 27.8174 147.608 26.6748C147.608 24.8486 146.046 23.7061 143.517 23.7061C140.87 23.7061 139.366 25.0244 139.151 26.9482H141.456C141.583 26.1572 142.315 25.6592 143.438 25.6592C144.649 25.6592 145.235 26.2256 145.235 26.9873C145.235 27.8467 144.649 28.3643 143.409 28.3643H141.886V30.0244H143.419C144.806 30.0244 145.538 30.4932 145.538 31.4307C145.538 32.2998 144.757 32.8857 143.429 32.8857C142.257 32.8857 141.446 32.417 141.231 31.5479H138.868C139.073 33.7256 140.997 34.8193 143.458 34.8193ZM153.019 34.6143L157.569 27.4951H157.735V34.6143H160.128V23.9307H157.735L153.185 31.001H153.019V23.9307H150.626V34.6143H153.019ZM171.437 23.9307H162.433V25.8643H165.724V34.6143H168.146V25.8643H171.437V23.9307ZM177.892 25.6396C179.347 25.6396 180.304 26.6553 180.353 28.2373H175.323C175.431 26.6748 176.446 25.6396 177.892 25.6396ZM180.372 31.6748C180.021 32.4658 179.19 32.9053 177.989 32.9053C176.397 32.9053 175.372 31.792 175.313 30.0146V29.8877H182.774V29.1064C182.774 25.7373 180.948 23.7158 177.901 23.7158C174.806 23.7158 172.882 25.874 172.882 29.3115C172.882 32.749 174.776 34.8291 177.921 34.8291C180.44 34.8291 182.228 33.6182 182.667 31.6748H180.372ZM195.841 34.6143C198.214 34.6143 199.659 33.3838 199.659 31.5674C199.659 30.2588 198.731 29.2822 197.325 29.126V28.96C198.409 28.7744 199.181 27.7881 199.181 26.665C199.181 25.0049 197.921 23.9307 195.772 23.9307H190.724V34.6143H195.841ZM193.116 25.6299H195.216C196.29 25.6299 196.808 26.167 196.808 26.9873C196.808 27.876 196.222 28.3643 195.021 28.3643H193.116V25.6299ZM193.116 30.0049H195.196C196.524 30.0049 197.208 30.4932 197.208 31.4502C197.208 32.3682 196.593 32.915 195.421 32.915H193.116V30.0049Z"/>
</svg>
