<svg viewBox="0 0 12 10" fill="none" xmlns="http://www.w3.org/2000/svg">
  <path fill="currentColor" d="M1.66342 4.46478C1.25018 4.09838 0.618154 4.13636 0.251756 4.5496C-0.114643 4.96285 -0.0766671 5.59487 0.336577 5.96127L1.66342 4.46478ZM4.51852 8.33268L3.8551 9.08093L4.56974 9.71456L5.23551 9.02976L4.51852 8.33268ZM11.717 2.36309C12.102 1.96711 12.0931 1.33401 11.6971 0.949021C11.3011 0.564035 10.668 0.572952 10.283 0.968937L11.717 2.36309ZM0.336577 5.96127L3.8551 9.08093L5.18194 7.58444L1.66342 4.46478L0.336577 5.96127ZM5.23551 9.02976L11.717 2.36309L10.283 0.968937L3.80152 7.6356L5.23551 9.02976Z" />
</svg>
