<svg viewBox="0 0 260 89" xmlns="http://www.w3.org/2000/svg">
  <path fill-rule="evenodd" clip-rule="evenodd" d="M243.965 0H15.8818C2.2798 0 0 4.81505 0 16.277V72.8277C0 84.2634 4.66207 89 15.8562 89H243.965C255.184 89 260 84.2634 260 72.8277V16.3031C260 4.81505 255.184 0 243.965 0Z" fill="white"/>
  <mask id="path-2-inside-1" fill="white">
    <path d="M128.54 48.69C123.775 48.69 119.984 52.2577 119.984 57.2015C119.984 61.9414 123.75 65.7129 128.54 65.7129C133.33 65.7129 137.096 62.1452 137.096 57.2015C137.07 52.0538 133.305 48.69 128.54 48.69ZM128.54 62.1452C125.953 62.1452 123.775 59.9791 123.775 56.9976C123.775 54.0415 125.953 51.8499 128.54 51.8499C131.127 51.8499 133.305 53.8377 133.305 56.9976C133.305 59.9537 131.102 62.1452 128.54 62.1452ZM110.045 48.69C105.281 48.69 101.49 52.2577 101.49 57.2015C101.49 61.9414 105.255 65.7129 110.045 65.7129C114.81 65.7129 118.601 62.1452 118.601 57.2015C118.601 52.0538 114.81 48.69 110.045 48.69ZM110.045 62.1452C107.458 62.1452 105.281 59.9791 105.281 56.9976C105.281 54.0415 107.458 51.8499 110.045 51.8499C112.633 51.8499 114.81 53.8377 114.81 56.9976C114.81 59.9537 112.633 62.1452 110.045 62.1452ZM87.9903 51.2638V54.8315H96.5459C96.341 56.8192 95.5469 58.3992 94.5479 59.3675C93.3439 60.5653 91.3715 61.9414 87.9903 61.9414C82.6366 61.9414 78.6405 57.7876 78.6405 52.4615C78.6405 47.1355 82.8159 42.9817 87.9903 42.9817C90.7824 42.9817 92.9597 44.1795 94.5479 45.5556L97.1351 42.9817C94.9577 40.994 92.1656 39.4141 88.1952 39.4141C81.0484 39.4141 74.875 45.3517 74.875 52.4615C74.875 59.5714 81.0228 65.509 88.1952 65.509C92.1656 65.509 94.9577 64.3113 97.34 61.763C99.7223 59.393 100.516 56.0292 100.516 53.4554C100.516 52.6654 100.516 51.8754 100.311 51.2893L87.9903 51.2638ZM178.209 54.016C177.415 52.0283 175.417 48.69 171.062 48.69C166.708 48.69 163.121 52.0538 163.121 57.2015C163.121 61.9414 166.708 65.7129 171.472 65.7129C175.238 65.7129 177.62 63.3429 178.44 61.9668L175.647 59.9791C174.648 61.3552 173.47 62.3491 171.472 62.3491C169.474 62.3491 168.296 61.5591 167.297 59.7753L178.619 55.0354L178.209 54.016ZM166.682 56.7937C166.682 53.6338 169.269 51.8499 171.062 51.8499C172.445 51.8499 173.854 52.6399 174.239 53.6338L166.682 56.7937ZM157.332 64.8974H161.098V40.1786H157.332V64.8974ZM151.389 50.4738C150.39 49.48 148.802 48.4861 146.83 48.4861C142.654 48.4861 138.684 52.2322 138.684 56.9976C138.684 61.763 142.449 65.3052 146.83 65.3052C148.828 65.3052 150.416 64.3113 151.21 63.3175H151.415V64.5152C151.415 67.6751 149.622 69.459 146.855 69.459C144.678 69.459 143.09 67.879 142.68 66.5029L139.504 67.879C140.503 70.0451 142.885 72.8228 147.06 72.8228C151.44 72.8228 155.001 70.2489 155.001 64.1329V49.0977H151.415V50.4738H151.389ZM147.009 62.1452C144.422 62.1452 142.244 59.9791 142.244 56.9976C142.244 54.0415 144.422 51.8499 147.009 51.8499C149.596 51.8499 151.569 54.016 151.569 56.9976C151.569 59.9537 149.596 62.1452 147.009 62.1452ZM195.5 40.1786H186.56V64.8974H190.325V55.596H195.5C199.675 55.596 203.645 52.6399 203.645 47.8745C203.645 43.1092 199.675 40.1786 195.5 40.1786ZM195.705 52.0538H190.325V43.5424H195.679C198.471 43.5424 200.059 45.9123 200.059 47.6962C199.854 49.8877 198.266 52.0538 195.705 52.0538ZM218.554 48.4861C215.762 48.4861 212.995 49.6839 211.996 52.2322L215.377 53.6083C216.172 52.2322 217.375 51.8245 218.759 51.8245C220.757 51.8245 222.524 53.0222 222.729 54.9844V55.1883C222.14 54.7805 220.552 54.1944 218.964 54.1944C215.377 54.1944 211.817 56.1821 211.817 59.7243C211.817 63.0881 214.788 65.2542 217.965 65.2542C220.552 65.2542 221.73 64.0565 222.729 62.8843H222.934V64.872H226.52V55.3921C226.085 51.06 222.729 48.4861 218.554 48.4861ZM218.144 62.1452C216.94 62.1452 215.173 61.5591 215.173 59.9791C215.173 57.9914 217.35 57.4053 219.143 57.4053C220.731 57.4053 221.525 57.8131 222.524 58.1953C222.114 60.5398 220.142 62.1452 218.144 62.1452ZM239.021 49.0977L234.845 59.7753H234.641L230.26 49.0977H226.29L232.847 64.1329L229.082 72.4405H232.847L242.991 49.1232H239.021V49.0977ZM205.618 64.8974H209.383V40.1786H205.618V64.8974Z"/>
  </mask>
  <path d="M128.54 48.69C123.775 48.69 119.984 52.2577 119.984 57.2015C119.984 61.9414 123.75 65.7129 128.54 65.7129C133.33 65.7129 137.096 62.1452 137.096 57.2015C137.07 52.0538 133.305 48.69 128.54 48.69ZM128.54 62.1452C125.953 62.1452 123.775 59.9791 123.775 56.9976C123.775 54.0415 125.953 51.8499 128.54 51.8499C131.127 51.8499 133.305 53.8377 133.305 56.9976C133.305 59.9537 131.102 62.1452 128.54 62.1452ZM110.045 48.69C105.281 48.69 101.49 52.2577 101.49 57.2015C101.49 61.9414 105.255 65.7129 110.045 65.7129C114.81 65.7129 118.601 62.1452 118.601 57.2015C118.601 52.0538 114.81 48.69 110.045 48.69ZM110.045 62.1452C107.458 62.1452 105.281 59.9791 105.281 56.9976C105.281 54.0415 107.458 51.8499 110.045 51.8499C112.633 51.8499 114.81 53.8377 114.81 56.9976C114.81 59.9537 112.633 62.1452 110.045 62.1452ZM87.9903 51.2638V54.8315H96.5459C96.341 56.8192 95.5469 58.3992 94.5479 59.3675C93.3439 60.5653 91.3715 61.9414 87.9903 61.9414C82.6366 61.9414 78.6405 57.7876 78.6405 52.4615C78.6405 47.1355 82.8159 42.9817 87.9903 42.9817C90.7824 42.9817 92.9597 44.1795 94.5479 45.5556L97.1351 42.9817C94.9577 40.994 92.1656 39.4141 88.1952 39.4141C81.0484 39.4141 74.875 45.3517 74.875 52.4615C74.875 59.5714 81.0228 65.509 88.1952 65.509C92.1656 65.509 94.9577 64.3113 97.34 61.763C99.7223 59.393 100.516 56.0292 100.516 53.4554C100.516 52.6654 100.516 51.8754 100.311 51.2893L87.9903 51.2638ZM178.209 54.016C177.415 52.0283 175.417 48.69 171.062 48.69C166.708 48.69 163.121 52.0538 163.121 57.2015C163.121 61.9414 166.708 65.7129 171.472 65.7129C175.238 65.7129 177.62 63.3429 178.44 61.9668L175.647 59.9791C174.648 61.3552 173.47 62.3491 171.472 62.3491C169.474 62.3491 168.296 61.5591 167.297 59.7753L178.619 55.0354L178.209 54.016ZM166.682 56.7937C166.682 53.6338 169.269 51.8499 171.062 51.8499C172.445 51.8499 173.854 52.6399 174.239 53.6338L166.682 56.7937ZM157.332 64.8974H161.098V40.1786H157.332V64.8974ZM151.389 50.4738C150.39 49.48 148.802 48.4861 146.83 48.4861C142.654 48.4861 138.684 52.2322 138.684 56.9976C138.684 61.763 142.449 65.3052 146.83 65.3052C148.828 65.3052 150.416 64.3113 151.21 63.3175H151.415V64.5152C151.415 67.6751 149.622 69.459 146.855 69.459C144.678 69.459 143.09 67.879 142.68 66.5029L139.504 67.879C140.503 70.0451 142.885 72.8228 147.06 72.8228C151.44 72.8228 155.001 70.2489 155.001 64.1329V49.0977H151.415V50.4738H151.389ZM147.009 62.1452C144.422 62.1452 142.244 59.9791 142.244 56.9976C142.244 54.0415 144.422 51.8499 147.009 51.8499C149.596 51.8499 151.569 54.016 151.569 56.9976C151.569 59.9537 149.596 62.1452 147.009 62.1452ZM195.5 40.1786H186.56V64.8974H190.325V55.596H195.5C199.675 55.596 203.645 52.6399 203.645 47.8745C203.645 43.1092 199.675 40.1786 195.5 40.1786ZM195.705 52.0538H190.325V43.5424H195.679C198.471 43.5424 200.059 45.9123 200.059 47.6962C199.854 49.8877 198.266 52.0538 195.705 52.0538ZM218.554 48.4861C215.762 48.4861 212.995 49.6839 211.996 52.2322L215.377 53.6083C216.172 52.2322 217.375 51.8245 218.759 51.8245C220.757 51.8245 222.524 53.0222 222.729 54.9844V55.1883C222.14 54.7805 220.552 54.1944 218.964 54.1944C215.377 54.1944 211.817 56.1821 211.817 59.7243C211.817 63.0881 214.788 65.2542 217.965 65.2542C220.552 65.2542 221.73 64.0565 222.729 62.8843H222.934V64.872H226.52V55.3921C226.085 51.06 222.729 48.4861 218.554 48.4861ZM218.144 62.1452C216.94 62.1452 215.173 61.5591 215.173 59.9791C215.173 57.9914 217.35 57.4053 219.143 57.4053C220.731 57.4053 221.525 57.8131 222.524 58.1953C222.114 60.5398 220.142 62.1452 218.144 62.1452ZM239.021 49.0977L234.845 59.7753H234.641L230.26 49.0977H226.29L232.847 64.1329L229.082 72.4405H232.847L242.991 49.1232H239.021V49.0977ZM205.618 64.8974H209.383V40.1786H205.618V64.8974Z" fill="currentColor" stroke="currentColor" stroke-width="2" mask="url(#path-2-inside-1)"/>
  <path d="M48.9758 40.5191L27.4587 19.247L54.6913 34.8331L48.9758 40.5191Z" fill="currentColor" stroke="currentColor"/>
  <path d="M21.7607 67.6189V18.0373L46.7051 42.7546L21.7607 67.6189Z" fill="currentColor" stroke="currentColor"/>
  <path d="M55.1248 51.004L26.4117 67.4304L48.9788 44.9348L55.1248 51.004Z" fill="currentColor" stroke="currentColor"/>
  <path d="M67.4794 43.9232L67.4794 43.9233L57.9219 49.3917L51.1978 42.7257L57.5127 36.4434L67.4794 42.141C67.4795 42.141 67.4795 42.141 67.4796 42.1411C68.1684 42.5352 68.1684 43.5291 67.4794 43.9232Z" fill="currentColor" stroke="currentColor"/>
  <path d="M75.3844 33.1895V33.2895H75.4844H76.8771H77.0761H77.1761V33.1895V30.7164H86.1284V33.1895V33.2895H86.2284H87.6212H87.7212V33.1895V29.2308V29.1308H87.6212H86.3284V18.7402V18.6402H86.2284H78.2699H78.1699V18.7402V24.6783C78.1699 26.8223 77.587 28.3594 76.6429 29.1308H75.4844H75.3844V29.2308V33.1895ZM79.6742 23.8316H79.6742L79.6741 23.8284L79.5669 20.4237H84.3378V29.1308H78.6534C79.3878 27.9716 79.6742 26.7707 79.6742 25.0522V23.8316Z" fill="currentColor" stroke="currentColor" stroke-width="0.2" stroke-miterlimit="10"/>
  <path d="M91.8694 27.971L91.8699 27.9706L91.8612 27.9637C90.8982 27.1973 90.5062 26.044 90.5062 24.677C90.5062 23.3206 91.0906 22.1579 91.8694 21.383L91.8699 21.3834L91.8768 21.3748C92.6485 20.4152 93.8094 20.0266 94.9823 20.0266C96.1451 20.0266 97.3146 20.6064 98.0952 21.383L98.0948 21.3834L98.1035 21.3904C99.0665 22.1568 99.4585 23.3101 99.4585 24.677C99.4585 26.0334 98.8741 27.1962 98.0952 27.971L98.0948 27.9706L98.0878 27.9793C97.3162 28.9388 96.1553 29.3275 94.9823 29.3275C93.8196 29.3275 92.6501 28.7477 91.8694 27.971ZM94.9823 30.913C96.7993 30.913 98.2175 30.3089 99.4301 29.1025C100.643 27.8961 101.25 26.4851 101.25 24.677C101.25 22.869 100.643 21.4579 99.4301 20.2515C98.2175 19.0452 96.7993 18.441 94.9823 18.441C93.1654 18.441 91.7472 19.0452 90.5346 20.2515C89.322 21.4579 88.7145 22.869 88.7145 24.677C88.7145 26.4851 89.322 27.8961 90.5346 29.1025C91.7472 30.3089 93.1654 30.913 94.9823 30.913Z" fill="currentColor" stroke="currentColor" stroke-width="0.2" stroke-miterlimit="10"/>
  <path d="M113.358 20.5913L113.424 20.5256L113.363 20.4551C112.149 19.0464 110.728 18.441 108.91 18.441C107.093 18.441 105.675 19.0452 104.462 20.2515C103.25 21.4579 102.642 22.869 102.642 24.677C102.642 26.4851 103.25 27.8961 104.462 29.1025C105.675 30.3089 107.093 30.913 108.91 30.913C109.92 30.913 110.731 30.7116 111.541 30.3088C112.352 29.9057 112.958 29.3022 113.552 28.7115L113.557 28.7066L113.628 28.6357L113.557 28.5648L112.562 27.5752L112.485 27.4983L112.415 27.5818C111.437 28.7497 110.27 29.3275 108.91 29.3275C107.546 29.3275 106.377 28.7459 105.598 27.971L105.599 27.9706L105.59 27.9637C104.627 27.1973 104.235 26.044 104.235 24.677C104.235 23.3101 104.627 22.1568 105.59 21.3904L105.59 21.3908L105.598 21.383C106.088 20.8955 106.575 20.5575 107.107 20.3408C107.64 20.1241 108.223 20.0266 108.91 20.0266C110.273 20.0266 111.438 20.607 112.215 21.5727L112.284 21.6593L112.363 21.5809L113.358 20.5913Z" fill="currentColor" stroke="currentColor" stroke-width="0.2" stroke-miterlimit="10"/>
  <path d="M118.161 30.6164V30.7164H118.261H119.554H119.654H119.853V30.6164V30.5164H119.754V20.2258H123.036H123.136V20.1258V18.7402V18.6402H123.036H114.879H114.779V18.7402V20.1258V20.2258H114.879H118.161V30.6164Z" fill="currentColor" stroke="currentColor" stroke-width="0.2" stroke-miterlimit="10"/>
  <path d="M131.499 18.8983L128.803 25.4125L125.913 18.896L125.887 18.8365H125.822H124.031H123.876L123.94 18.9781L127.902 27.6482L127.521 28.5942C127.33 28.9728 127.141 29.161 126.945 29.3562C126.78 29.5205 126.626 29.525 126.22 29.525C126.12 29.525 125.978 29.5249 125.838 29.5017C125.696 29.478 125.572 29.4331 125.495 29.3562L125.375 29.2369L125.328 29.3995L124.93 30.7851L124.907 30.8651L124.982 30.9022C125.401 31.1106 125.819 31.1106 126.212 31.1106H126.22C127.466 31.1106 128.49 30.2825 129.097 28.8739L133.24 19.8052L133.67 18.9828L133.747 18.8365H133.582H131.592H131.525L131.499 18.8983Z" fill="currentColor" stroke="currentColor" stroke-width="0.2" stroke-miterlimit="10"/>
  <path d="M135.273 30.6164V30.7164H135.373H136.766H136.866V30.6164V20.2258H142.237V30.6164V30.7164H142.337H143.929H144.029V30.6164V18.7402V18.6402H143.929H135.373H135.273V18.7402V30.6164Z" fill="currentColor" stroke="currentColor" stroke-width="0.2" stroke-miterlimit="10"/>
  <path d="M146.614 30.6164V30.7164H146.714H148.306H148.406V30.6164V25.3721H154.175V30.6164V30.7164H154.275H155.866H155.966V30.6164V18.7402V18.6402H155.866H154.275H154.175V18.7402V23.7866H148.406V18.7402V18.6402H148.306H146.714H146.614V18.7402V30.6164Z" fill="currentColor" stroke="currentColor" stroke-width="0.2" stroke-miterlimit="10"/>
  <path d="M168.471 29.1025L168.471 29.1028L168.477 29.0958C169.486 27.8921 170.09 26.4877 170.291 24.6881L170.291 24.6882V24.677C170.291 22.869 169.684 21.4579 168.471 20.2515C167.258 19.0452 165.84 18.441 164.023 18.441C162.206 18.441 160.788 19.0452 159.576 20.2515C158.363 21.4579 157.755 22.869 157.755 24.677C157.755 26.4851 158.363 27.8961 159.576 29.1025C160.788 30.3089 162.206 30.913 164.023 30.913C165.84 30.913 167.258 30.3089 168.471 29.1025ZM166.937 27.971L166.937 27.9706L166.93 27.9793C166.158 28.9388 164.997 29.3275 163.824 29.3275C162.662 29.3275 161.492 28.7477 160.711 27.971C159.933 27.1962 159.348 26.0334 159.348 24.677C159.348 23.3206 159.933 22.1579 160.711 21.383L160.712 21.3834L160.719 21.3748C161.491 20.4152 162.651 20.0266 163.824 20.0266C164.987 20.0266 166.157 20.6064 166.937 21.383L166.937 21.3834L166.946 21.3904C167.909 22.1568 168.301 23.3101 168.301 24.677C168.301 26.0334 167.716 27.1962 166.937 27.971Z" fill="currentColor" stroke="currentColor" stroke-width="0.2" stroke-miterlimit="10"/>
  <path d="M176.359 19.566H176.259V19.666V31.5422V31.7401V31.8401H176.359H180.936C181.961 31.8401 182.777 31.4309 183.582 30.8306L183.588 30.8263L183.593 30.8213C184.206 30.2109 184.617 29.3943 184.617 28.3752C184.617 27.5679 184.414 26.9441 183.991 26.5229L183.985 26.5171C183.644 26.1782 183.29 25.826 182.801 25.604C183.291 25.3801 183.628 25.0215 183.81 24.6593L183.814 24.6529L183.816 24.6462C183.856 24.527 183.896 24.4146 183.936 24.3059C184.087 23.8851 184.219 23.5198 184.219 23.0309C184.219 22.0118 183.808 21.1953 183.195 20.5848C182.581 19.9743 181.761 19.566 180.737 19.566H176.359ZM180.737 24.7123H178.051V21.3495H180.737C181.023 21.3495 181.258 21.3969 181.467 21.4894C181.677 21.5821 181.866 21.7222 182.059 21.9142C182.446 22.2992 182.626 22.6711 182.626 23.0309C182.626 23.3907 182.446 23.7626 182.059 24.1476C181.866 24.3397 181.677 24.4798 181.467 24.5724C181.258 24.6649 181.023 24.7123 180.737 24.7123ZM181.135 30.0566H178.25V26.2979H181.135C181.421 26.2979 181.656 26.3453 181.865 26.4378C182.075 26.5305 182.264 26.6706 182.457 26.8626C182.835 27.2385 183.024 27.8063 183.024 28.1772C183.024 28.4624 182.976 28.6956 182.884 28.9035C182.791 29.1118 182.65 29.2999 182.457 29.4919C182.264 29.6839 182.075 29.824 181.865 29.9167C181.656 30.0092 181.421 30.0566 181.135 30.0566Z" fill="currentColor" stroke="currentColor" stroke-width="0.2" stroke-miterlimit="10"/>
</svg>
