<svg viewBox="0 0 48 48" fill="none" xmlns="http://www.w3.org/2000/svg">
  <rect stroke="currentColor" x="0.5" y="0.5" width="47" height="47" rx="9.5" />
  <path fill="currentColor" fill-rule="evenodd" clip-rule="evenodd" d="M25.5232 23.7702C24.8323 24.2308 23.6203 24.2307 22.9296 23.7702L22.9293 23.77L11.1562 15.9213C11.5424 14.8045 12.6037 14 13.8502 14H34.6024C35.8488 14 36.9102 14.8045 37.2964 15.9213L25.5236 23.77L25.5232 23.7702ZM26.3829 25.0599L26.3833 25.0597L37.4527 17.68V30.9619C37.4527 32.5334 36.1742 33.8119 34.6026 33.8119H13.8502C12.2786 33.8119 11 32.5334 11 30.9619V17.68L22.0696 25.0597L22.0699 25.0599C22.6745 25.463 23.4503 25.6645 24.2263 25.6645C25.0022 25.6645 25.7783 25.463 26.3829 25.0599Z" />
</svg>
