<svg viewBox="0 0 100 100" fill="none" xmlns="http://www.w3.org/2000/svg">
  <g transform="rotate(0 50 50)" opacity="1">
    <rect x="30" y="10" rx="10" ry="20" width="4" height="30" fill="currentColor"/>
  </g>
  <g transform="rotate(30 50 50)">
    <rect x="30" y="10" rx="10" ry="20" width="4" height="30" fill="currentColor"/>
  </g>
  <g transform="rotate(60 50 50)">
    <rect x="30" y="10" rx="10" ry="20" width="4" height="30" fill="currentColor"/>
  </g>
  <g transform="rotate(90 50 50)">
    <rect x="30" y="10" rx="10" ry="20" width="4" height="30" fill="currentColor"/>
  </g>
  <g transform="rotate(120 50 50)">
    <rect x="30" y="10" rx="10" ry="20" width="4" height="30" fill="currentColor"/>
  </g>
  <g transform="rotate(150 50 50)">
    <rect x="30" y="10" rx="10" ry="20" width="4" height="30" fill="currentColor"/>
  </g>
  <g transform="rotate(180 50 50)">
    <rect x="30" y="10" rx="10" ry="20" width="4" height="30" fill="currentColor"/>
  </g>
  <g transform="rotate(210 50 50)">
    <rect x="30" y="10" rx="10" ry="20" width="4" height="30" fill="currentColor"/>
  </g>
  <g transform="rotate(240 50 50)">
    <rect x="30" y="10" rx="10" ry="20" width="4" height="30" fill="currentColor"/>
  </g>
  <g transform="rotate(270 50 50)">
    <rect x="30" y="10" rx="10" ry="20" width="4" height="30" fill="currentColor"/>
  </g>
  <g transform="rotate(300 50 50)">
    <rect x="30" y="10" rx="10" ry="20" width="4" height="30" fill="currentColor"/>
  </g>
  <g transform="rotate(330 50 50)">
    <rect x="30" y="10" rx="10" ry="20" width="4" height="30" fill="currentColor"/>
  </g>
</svg>
