<svg viewBox="0 0 48 48" fill="none" xmlns="http://www.w3.org/2000/svg">
  <rect stroke="currentColor" x="0.5" y="0.5" width="47" height="47" rx="9.5"/>
  <path fill="currentColor" d="M39.8088 31.4773C39.7701 31.3939 39.734 31.3246 39.7004 31.2692C39.1456 30.2699 38.0854 29.0434 36.5203 27.5893L36.4873 27.556L36.4707 27.5397L36.454 27.5229H36.4372C35.7269 26.8458 35.2771 26.3905 35.0887 26.1574C34.7441 25.7134 34.6669 25.264 34.8552 24.8086C34.9883 24.4645 35.4882 23.7379 36.3537 22.6277C36.809 22.0394 37.1696 21.5678 37.4358 21.2126C39.3563 18.6595 40.1888 17.028 39.9334 16.3175L39.8342 16.1515C39.7676 16.0515 39.5955 15.9601 39.3184 15.8767C39.0405 15.7935 38.6854 15.7797 38.2524 15.8352L33.4574 15.8683C33.3798 15.8408 33.2688 15.8434 33.1243 15.8767C32.98 15.9101 32.9078 15.9268 32.9078 15.9268L32.8243 15.9685L32.7581 16.0186C32.7026 16.0517 32.6415 16.11 32.5749 16.1933C32.5086 16.2762 32.4531 16.3736 32.4088 16.4846C31.8867 17.8277 31.2932 19.0764 30.627 20.2307C30.2163 20.919 29.8391 21.5156 29.4946 22.0206C29.1506 22.5255 28.862 22.8975 28.6291 23.136C28.3958 23.3747 28.1853 23.5659 27.9963 23.7104C27.8075 23.8549 27.6634 23.9159 27.5636 23.8936C27.4636 23.8713 27.3694 23.8491 27.2803 23.8269C27.125 23.727 27 23.591 26.9059 23.419C26.8113 23.247 26.7476 23.0305 26.7143 22.7696C26.6812 22.5086 26.6616 22.2841 26.656 22.0953C26.6508 21.9068 26.6532 21.6401 26.6644 21.296C26.676 20.9518 26.6812 20.7188 26.6812 20.5967C26.6812 20.1749 26.6894 19.717 26.7059 19.2231C26.7227 18.7291 26.7363 18.3378 26.7477 18.0495C26.759 17.7609 26.7642 17.4555 26.7642 17.1336C26.7642 16.8117 26.7446 16.5592 26.7059 16.376C26.6676 16.193 26.6089 16.0154 26.5315 15.8432C26.4537 15.6711 26.3397 15.5381 26.1902 15.4436C26.0404 15.3492 25.8541 15.2744 25.6325 15.2187C25.0441 15.0856 24.2949 15.0136 23.3845 15.0024C21.3201 14.9802 19.9935 15.1135 19.4053 15.4021C19.1722 15.5241 18.9612 15.6907 18.7726 15.9014C18.5728 16.1457 18.5449 16.279 18.6892 16.301C19.3553 16.4007 19.8268 16.6394 20.1044 17.0168L20.2044 17.2168C20.2822 17.361 20.3598 17.6165 20.4376 17.9827C20.5152 18.3489 20.5653 18.754 20.5873 19.1978C20.6427 20.0083 20.6427 20.702 20.5873 21.2791C20.5318 21.8564 20.4793 22.3059 20.4292 22.6278C20.3791 22.9497 20.3042 23.2105 20.2044 23.4103C20.1044 23.6101 20.0378 23.7322 20.0045 23.7765C19.9712 23.8208 19.9434 23.8488 19.9214 23.8597C19.7771 23.915 19.627 23.9432 19.4717 23.9432C19.3162 23.9432 19.1276 23.8654 18.9057 23.7099C18.6838 23.5544 18.4535 23.3409 18.2148 23.0689C17.9761 22.7968 17.7069 22.4167 17.4071 21.9283C17.1075 21.44 16.7967 20.8628 16.4748 20.1969L16.2085 19.7139C16.042 19.4032 15.8145 18.9507 15.5259 18.357C15.2371 17.7631 14.9819 17.1885 14.76 16.6335C14.6713 16.4004 14.538 16.223 14.3605 16.1009L14.2771 16.0508C14.2217 16.0065 14.1328 15.9594 14.0108 15.9092C13.8886 15.8592 13.7611 15.8232 13.6278 15.8011L9.06579 15.8343C8.59961 15.8343 8.2833 15.9399 8.11675 16.1508L8.05009 16.2506C8.0168 16.3062 8 16.3949 8 16.5171C8 16.6392 8.0333 16.7891 8.09995 16.9665C8.76593 18.5317 9.49016 20.0413 10.2727 21.4953C11.0551 22.9494 11.7351 24.1207 12.3122 25.0081C12.8893 25.8962 13.4776 26.7344 14.077 27.5223C14.6765 28.3104 15.0733 28.8155 15.2674 29.0374C15.4618 29.2597 15.6144 29.4259 15.7254 29.5369L16.1417 29.9364C16.4081 30.2029 16.7993 30.522 17.3155 30.8937C17.8318 31.2657 18.4033 31.632 19.0305 31.993C19.6577 32.3535 20.3874 32.6476 21.22 32.8751C22.0525 33.1028 22.8627 33.1942 23.6509 33.1501H25.5656C25.954 33.1166 26.2482 32.9945 26.4481 32.7837L26.5144 32.7003C26.5589 32.634 26.6006 32.5311 26.6391 32.3926C26.6781 32.2538 26.6974 32.101 26.6974 31.9347C26.6861 31.4575 26.7224 31.0275 26.8054 30.6445C26.8884 30.2618 26.983 29.9731 27.0888 29.7788C27.1945 29.5846 27.3138 29.4207 27.4466 29.2879C27.5797 29.1547 27.6745 29.0741 27.7302 29.0463C27.7855 29.0184 27.8296 28.9994 27.8629 28.9881C28.1293 28.8993 28.4428 28.9853 28.8039 29.2464C29.1647 29.5072 29.5031 29.8293 29.8196 30.2121C30.136 30.5952 30.5161 31.0251 30.96 31.5023C31.4042 31.9796 31.7926 32.3345 32.1255 32.5679L32.4584 32.7677C32.6807 32.901 32.9693 33.0232 33.3245 33.1341C33.6792 33.2451 33.9899 33.2728 34.2567 33.2174L38.5188 33.1509C38.9404 33.1509 39.2684 33.0811 39.5011 32.9426C39.7343 32.8038 39.8728 32.651 39.9174 32.4847C39.962 32.3183 39.9644 32.1295 39.9259 31.9184C39.8864 31.7078 39.8475 31.5605 39.8088 31.4773Z" />
</svg>
